<svg height="92" viewBox="0 0 200 92" width="200" xmlns="http://www.w3.org/2000/svg" xmlns:xlink="http://www.w3.org/1999/xlink"><defs><path id="a" d="m81.9058956 35.9023785c-.0278382.2376995-.0424267.4794966-.0424267.7245035 0 1.199397.3586048 2.3109151.9513484 3.2614263-1.0639852-1.174839-2.3453626-2.0179532-3.8315516-2.5277034zm17.9646352-7.8816039c-3.2305167.2429171-5.6466768 2.6000664-6.9090674 4.8342615-.4894772-.6309971-1.0942412-1.16928-1.7838994-1.5768234l8.5394195-4.2581581c.0260215.3507649.0745813.6889093.1535473 1.00072zm-34.7446848 34.2447376c0 3.3838615.7283148 6.137081 2.5210657 8.1846732 1.9175993 2.1862126 4.5672153 3.2937014 7.8757145 3.2937014 2.0874561 0 3.9484912-.5600956 5.5295187-1.6664234.6054196-.422718 1.1387304-.9355551 1.6313902-1.4956644 1.0595049 1.888279 3.0546087 3.1620878 5.3873362 3.1620878 1.9522947 0 3.6945871-.9422888 4.8368827-2.3778556 1.1425141 1.4355668 2.8843557 2.3778556 4.8372787 2.3778556 1.8158082 0 3.4251113-.77952 4.5562463-2.0095122 1.14287 1.2288313 2.762035 2.0095122 4.578307 2.0095122 2.681593 0 4.969408-1.7496448 5.825167-4.1575492.459781.8014829 1.096399 1.6087434 2.067376 2.3317034.80668.5993366 2.486685 1.8443395 4.824685 1.8443395 1.300105 0 2.540421-.2355688 3.66123-.6767259.844831.4295474 1.801876.6697737 2.815471.6697737 2.224339 0 4.163862-1.1837444 5.260206-2.9448898 1.885295 1.9378186 4.407686 2.9333483 7.522492 2.9333483 2.087456 0 3.948491-.5600956 5.533098-1.6676936.387371-.2713678.751672-.5716098 1.094118-.8984449 1.148428 1.5602146 2.981653 2.5846322 4.997423 2.5846322 2.258953 0 4.26202-1.2623083 5.350278-3.1227785 1.361354 1.481678 3.719571 3.1042848 7.56291 3.1042848 3.252304 0 5.866241-1.0036156 7.713207-2.8352527 1.121915 1.7185035 3.033764 2.8491025 5.203342 2.8491025.945119 0 1.85053-.2171571 2.663699-.6073678.969146.3671688 2.136166.6073678 3.528787.6073678 1.890963 0 3.510155-.840642 5.150233-2.0903298 2.929692-2.2323102 3.580735-6.9846341 3.580735-10.3222751v-12.6468215c0-3.4184175-.560904-6.0584761-1.718839-8.0743258-1.473404-2.5598556-3.850102-3.96928-6.691717-3.96928l-.282288.003961v-2.1076761c0-3.4177893-2.783849-6.1981893-6.206187-6.1981893-3.449002 0-6.253736 2.7804-6.253736 6.1970693v2.7711668c-.654485-.2344761-1.348446-.3845698-2.082771-.3845698-1.733823 0-3.302011.7241074-4.422833 1.8870908-1.128814-1.1629834-2.709882-1.8870908-4.456286-1.8870908-.863968 0-1.686398.1807161-2.435775.5023337v-2.8878107c0-3.4177893-2.785065-6.1981893-6.208605-6.1981893-3.418759 0-6.202608 2.7785971-6.206132 6.1970693l-.001147 3.7695102c-1.58906-1.0162497-3.489325-1.5417346-5.693844-1.5417346-3.617711 0-5.907779 1.5301385-7.280608 2.9991551-1.104431-1.7207298-3.024462-2.8704507-5.21849-2.8704507-.875537 0-1.719877.1866302-2.488364.5261268-1.088245-.5042049-2.363967-.8240741-3.811418-.8240741-1.658682 0-3.175455.5208819-4.466804 1.4846556-.305318-.1738459-.623928-.3291981-.961552-.4521522-.691762-.2500195-1.397893-.3771259-2.099203-.3771259-.87383 0-1.681275.1501893-2.414999.4157795-.881439-.4752078-1.893367-.7430927-2.972474-.7430927-.274107 0-.540113.0444313-.807868.0790557.423952-.8435649.665071-1.7721679.665071-2.72608 0-1.411282-.467827-2.7161366-1.256736-3.766683.76118-.2403356 1.635188-.6042946 2.701359-1.0826029l.183421-.0821424c.64286-.2830459 1.116793-.6453522 1.468199-1.0240352.093459.0065015.185033.0179337.27998.0179337.497824 0 1.818622-.0108995 5.739931-2.0628215.385268-.1888429.714218-.4444487 1.008241-.7309775.068871.0034829.134451.0193951.204374.0193951 1.69809 0 5.616448-1.4674049 6.881175-3.1401112.709847-.9387512.934834-2.1072117.618901-3.2063825-.12896-.4484234-.370106-.8585483-.673922-1.23872.378889-.42.708918-.9387922.890754-1.6124039.206014-.76384.35698-2.2761951-.948698-3.8183395-6.627216-7.82890925-8.984285-9.03975218-10.231021-9.22811705-.4734-2.45799025-2.38656-3.33343415-3.888157-3.33343415-.305988 0-.620951.03391415-.938386.10111415-.040855.00900097-3.647721.88698536-5.242886 2.86557463l-.063025.00054634-.258467.03888586c-.349411.05232585-4.13101 1.2820039-5.635776 3.39472-1.8257387.34684487-5.5014893 2.18499707-5.8033522 4.88366442-.1165435 1.0383492.2233887 2.0603629.9563205 2.8775258.2084314.2321815.5408508.5067727.9463216.794722l-33.9782461 16.2119453c-3.3883121-4.4426165-8.0273085-7.2344897-13.1348282-7.8014965-.541889-.0608215-1.0927387-.0912391-1.6371957-.0912391-3.1653332 0-6.0867746 1.017001-8.2063445 2.8472039-1.5412098 1.3104273-2.7434709 2.8486517-3.8037817 4.2054771-.8282893 1.0597522-1.8480038 2.3647981-2.5004807 2.7335376-.0963956.0114731-.2823571.0264019-.5907493.0264019-1.2918406 0-3.2749786-.2570946-5.1925506-.5058029-1.7316106-.2246283-3.5218071-.4574244-5.0670465-.5395942-.5557944-.0294341-1.1102502-.0448819-1.6590919-.0448819-6.8256211 0-12.15351076 2.441559-15.36693932 7.0037971-1.75817846 2.392279-2.23599038 5.1168292-2.47645353 7.5240097-.31841834 3.8143103 1.21119447 15.2676761 3.28925285 17.5219356.23658383.2560703.50801324.4594049.79291098.6357366 3.28030583 14.2099044 13.06847002 19.3152059 21.23674532 19.3162166 2.3565361 0 4.593469-.4085678 6.4701989-1.1799473 7.1835566-2.9537542 11.0507597-9.3974829 13.6097034-13.6616781.742835-1.2367805 1.7357494-2.8920448 2.2946036-3.4660722.8033196-.1245658 1.6331934-.1983356 2.504483-.2760253 3.6272863-.3228878 7.5858857-.3341288 12.4710002-5.35248.9501874-.97608 1.691192-2.0930888 2.2628725-3.2750986z"/><filter id="b" height="200%" width="200%" x="-50%" y="-50%"><feOffset dx="0" dy="1" in="SourceAlpha" result="shadowOffsetOuter1"/><feGaussianBlur in="shadowOffsetOuter1" result="shadowBlurOuter1" stdDeviation="2"/><feColorMatrix in="shadowBlurOuter1" result="shadowMatrixOuter1" type="matrix" values="0 0 0 0 0   0 0 0 0 0   0 0 0 0 0  0 0 0 0.26 0"/><feOffset dx="0" dy="1" in="SourceAlpha" result="shadowOffsetOuter2"/><feGaussianBlur in="shadowOffsetOuter2" result="shadowBlurOuter2" stdDeviation="1"/><feColorMatrix in="shadowBlurOuter2" result="shadowMatrixOuter2" type="matrix" values="0 0 0 0 0   0 0 0 0 0   0 0 0 0 0  0 0 0 0.05 0"/><feMerge><feMergeNode in="shadowMatrixOuter1"/><feMergeNode in="shadowMatrixOuter2"/></feMerge></filter><linearGradient id="c" x1="50%" x2="50%" y1="0%" y2="100%"><stop offset="0" stop-color="#424242"/><stop offset="1" stop-color="#212121"/></linearGradient></defs><g fill="none" fill-rule="evenodd" transform="translate(4 3)"><use fill="#000" filter="url(#b)" xlink:href="#a"/><use fill="#fff" fill-rule="evenodd" xlink:href="#a"/><path d="m85.7821277 36.604878c0 1.3129682 1.0090609 2.3219513 2.1855319 2.3219513 1.3130667 0 2.3221276-1.0089831 2.3221276-2.3219513 0-1.1763827-1.0090609-2.1853658-2.3221276-2.1853658-1.176471 0-2.1855319 1.0089831-2.1855319 2.1853658zm-52.8625532 12.8390244c0-2.6850819 2.2321566-4.9170731 4.9174468-4.9170731 2.8218722 0 5.0540425 2.2319912 5.0540425 4.9170731 0 2.8216537-2.2321703 5.0536586-5.0540425 5.0536586-2.6852902 0-4.9174468-2.2320049-4.9174468-5.0536586zm-2.3221277-1.502439c-1.0421974 3.7352611 1.2105559 7.6260746 5.0540426 8.6048781 3.735543 1.0421219 7.6266413-1.2104558 8.6055319-5.0536586 1.0421885-3.7352539-1.2105512-7.6260674-5.0540426-8.604878-3.7355383-1.0421149-7.6266502 1.2104764-8.6055319 5.0536585zm55.1846809-4.9170732v24.4487805c0 1.1773463 1.0090609 2.1853659 2.1855319 2.1853659 1.3130667 0 2.3221276-1.0080196 2.3221276-2.1853659v-24.4487805c0-1.1773462-1.0090609-2.1853658-2.3221276-2.1853658-1.176471 0-2.1855319 1.0080196-2.1855319 2.1853658zm16.8012763-.1365853c0-.9999361-.802523-1.8030522-1.775744-1.7756098h-.9561706v-2.0487805c-.011343-1.0360946.0854345-2.0987669 1.2293616-2.5951219.7485-.2877082 1.498702-1.1215957 1.502553-2.0487805-.003851-1.3056478-1.01883-2.3219512-2.322127-2.3219512-1.9960235 0-3.4605313 2.0591169-3.961277 3.1414634-.5339514 1.0703138-.725819 2.5467407-.6829787 4.3707317v1.502439h-.6829787c-1.0184415-.0274424-1.9123405.8087533-1.9123405 1.7756098 0 1.0194497.8024829 1.7611596 1.7757447 1.7756097h.8195745v23.0829269c-.0169995 1.1330134.9406377 2.0487805 2.1855319 2.0487805 1.114642 0 1.9829722-.9412256 2.0489362-2.0487805v-23.0829269c-.0286111-.0364668.8131706-.055465 1.0927656 0 1.157888-.055465 1.639149-.9322249 1.639149-1.7756097zm40.705532-.1365854c-1.123493-1.2982453-2.667997-1.9121951-4.644255-1.9121951-2.063379 0-3.648113.6613471-4.780851 2.0487805-1.077871 1.3344391-1.639149 3.2920605-1.639149 5.7365853v13.6585366c0 2.4315334.572839 4.2954405 1.639149 5.6 1.202253 1.2809055 2.867062 1.9121952 5.054042 1.9121952 1.19729 0 2.282905-.3168209 3.141702-.9560976.934178-.6117609 1.660031-1.5461418 2.185532-2.7317073.476696-1.2702748.682979-2.7225938.682979-4.3707317v-1.2292683c0 .0098547-.01845.0064633 0 0-.01845-1.1949206-.992582-2.1661828-2.185532-2.1853659-1.211231.0191831-2.186636.9904453-2.185532 2.1853659-.001104 1.1130389.003512 2.4126499 0 2.4585366.003512.8283108-.096232 1.5543541-.409787 2.0487804-.507563.8515427-1.126877 1.0133582-1.502553.9560976-.642602.0572606-1.193416-.2387607-1.639149-.8195122-.30587-.5430546-.486731-1.2114716-.546383-2.0487805v-16.1170731c.059652-.6297912.45863-2.3792118 2.185532-2.3219513.824553-.0572605 1.897333.4583939 1.91234 2.8682927-.015007.0413604.008197 2.6395567 0 2.595122.010511 1.1729586 1.030009 2.0517646 2.185532 2.0487805 1.183677.0029841 2.174054-.961468 2.185532-2.1853659-.002191-1.8529211 0-1.8529211 0-1.9121951 0-2.277526-.557881-4.1021314-1.639149-5.3268293zm-63.3804254 0c-1.1240573-1.2982453-2.6611945-1.9121951-4.6442553-1.9121951-2.0559772 0-3.6481096.6613471-4.780851 2.0487805-1.0778701 1.3344391-1.639149 3.2920605-1.639149 5.7365853v13.6585366c0 2.4315334.5730312 4.2954405 1.639149 5.6 1.2028996 1.2809055 2.8750933 1.9121952 5.0540425 1.9121952 1.2046676 0 2.2903108-.3168209 3.1417021-.9560976.9421752-.6117609 1.6606592-1.5461418 2.185532-2.7317073.4759286-1.2702748.6829787-2.7225938.6829787-4.3707317v-1.2292683c0 .0098547-.0109032.0064633 0 0-.0109032-1.1949206-.9852138-2.1661828-2.1855319-2.1853659-1.2038379.0191831-2.1786279.9904453-2.185532 2.1853659.0069041 1.1130389.0103011 2.4126499 0 2.4585366.0103011.8283108-.088197 1.5543541-.4097872 2.0487804-.4995422.8515427-1.1199391 1.0133582-1.5025532.9560976-.6358433.0572606-1.1939991-.2387607-1.6391489-.8195122-.3056875-.5430546-.4867399-1.2114716-.546383-2.0487805v-16.1170731c.0596431-.6297912.459224-2.3781315 2.1855319-2.3219513.8251775-.0561802 1.9053006.4583939 1.9123404 2.8682927-.0070398.0413604.0149582 2.6395567 0 2.595122.0174237 1.1729586 1.0374152 2.0517646 2.185532 2.0487805 1.1916888.0029841 2.1733001-.961468 2.1855319-2.1853659-.0016848-1.8516904 0-1.8529211 0-1.9121951 0-2.277526-.5579778-4.1021314-1.639149-5.3268293zm105.9982984 0c-.714575-1.2897741-1.812668-1.9278243-3.278298-1.9121951-2.862887-.0156292-4.255107 2.5289505-4.234468 2.5951219v-8.7414634c-.020639-1.2073433-.999049-2.1853658-2.185532-2.1853658-1.219989 0-2.181888.9780225-2.185532 2.1853658.003644-.0059061-.004556 33.2214511 0 33.1902439.127612 1.1464336 1.075739 2.0487805 2.185532 2.0487805 1.134363 0 2.043334-.8201997 2.185532-1.9121951.279773.4661634 1.321885 1.9121951 4.097872 1.9121951.892918 0 1.684548-.4025815 2.458723-1.0926829.655119-.606741 1.201304-1.5634605 1.639149-2.8682927.346967-1.2043519.546383-2.7222009.546383-4.5073171v-12.5658536c0-2.7033197-.397697-4.7476005-1.229361-6.1463415zm-3.005107 20.2146342c0 2.4909664-1.244755 3.004878-2.185532 3.004878-1.677133 0-2.322127-1.5107959-2.322127-2.0487805v-16.9365853c0-.5270409.88799-2.4585366 2.595319-2.4585366.820721 0 1.91234.4967521 1.91234 2.8682927zm-56.550638-21.9902439c-.968105.0246364-1.885429.6762192-2.185532 1.6390243v.2731708c-.061963.0440241-1.281821-2.1853659-4.234468-2.1853659-1.331243 0-2.466897.680468-3.278298 2.0487805-.920263 1.4872424-1.365957 3.4332679-1.365957 5.8731707v14.3414635c0 1.3709451.193739 2.6081907.546382 3.6878048.403057.9680829.82497 1.568202 1.502554 2.0487805.734958.5651728 1.529834 1.092683 2.458723 1.092683 3.209977 0 4.305524-2.0984237 4.371064-2.0487805-.002706 1.1149798 1.006361 2.0419277 2.185532 2.0487805 1.206936-.0068528 2.185532-.9799269 2.185532-2.1853659v-24.4487805c0-1.1871911-.979651-2.1607294-2.185532-2.1853658zm-3.141702 24.4487804c-.573679.4375339-1.04203.6829269-1.502553.6829269-.666116 0-1.284553-.277675-1.639149-.8195122-.36876-.4721666-.546383-1.1115672-.546383-1.9121951v-15.4341464c0-2.8281467 1.183619-3.4146341 2.185532-3.4146341.7932 0 1.655654.4758508 2.322127 1.3658536v17.7560976c0 .5482245-.268919 1.1070086-.819574 1.7756097zm-10.244681-24.0390243c-.2165-.0377139-.474523-.0817267-.682979-.1365854-2.434151.0548587-3.233248 2.6133624-3.278298 2.5951219v-.6829268c.012424-1.2462894-.957053-2.1853658-2.185532-2.1853658-1.196053 0-2.173938.9877149-2.185532 2.1853658.019232.0658694-.0204 24.5141967 0 24.5853659.067531 1.1253876 1.068398 2.0487805 2.185532 2.0487805 1.256131 0 2.22565-.9546507 2.185532-2.1853659v-17.2097561c.06512-2.9228273 1.933151-4.7350158 3.278298-4.7804878.148865.045472.307116.0258742.546383 0 .940058-.2449222 1.639149-1.1174183 1.639149-2.1853659 0-.8552857-.580417-1.6745723-1.502553-2.0487804zm39.749362-6.2829269c0-1.1734984-1.023136-2.5951219-2.185532-2.5951219-1.203886 0-2.322128 1.1367024-2.322128 2.4585366v33.0536585c0 1.206534 1.196925 1.9121951 2.322128 1.9121951 1.104295 0 2.055075-.8895117 2.185532-2.0487805-.028028.0476699 0-32.7527261 0-32.7804878zm10.517872 34.5560976h.136596c4.60847 0 6.829787-2.6093082 6.829787-5.8731707v-20.6243903c0-1.2109266-.977674-2.1853658-2.185532-2.1853658-1.196324 0-2.189424.9744392-2.185532 2.1853658v19.5317073c-.003892 2.7168108-1.199096 3.2769004-2.185532 3.2780488-1.25606-.0011484-2.367669-.4406716-2.322128-3.2780488v-19.5317073c-.045541-1.2109266-1.104228-2.1853658-2.322127-2.1853658-1.184015 0-2.180886.9744392-2.185532 2.1853658v20.4878049c0 4.3077483 3.133321 6.0097561 6.42 6.0097561zm-55.594468-44.5268293c-.159012-.2059219-3.716848-2.7089335-3.961277-2.0487805-.327679.5854907-.845272 4.1291685-.273191 4.3707317.475232.1936822 3.392123-1.0877531 4.097872-1.3658536.677133-.3296432.361784-.6776636.136596-.9560976zm-98.89531934 15.9804878c2.57474124-2.2203619 6.77699644-3.3441334 9.83489364-3.1414634 3.0995593.2651214 10.7103824 1.9173815 13.7961702.9560976 4.2028203-1.3744132 6.7357886-8.5411041 12.1570213-9.4243903 6.61522-1.0159092 10.0215489 4.2978388 11.6106383 6.8292683l-10.9276596 5.1902439c-.7520466.3451095.1693145 2.0061946.8195745 1.6390244 1.4744174-.7318859 50.123346-23.7488025 50.6770212-24.1756097.6541735-.2967719-.0876226-1.8863024-.6829787-1.6390244l-37.8370213 18.0292683c-1.5362426-2.5353028-5.3521047-7.7924865-12.1570212-8.6048781-2.4562582-.2162285-5.1982116.3261455-7.1029788 2.0487805-2.993468 2.4641499-4.7621554 6.3970977-7.3761702 7.5121951-1.8785642.7907406-8.2298111-.6035358-12.293617-.8195122-5.5270378-.2935802-10.78901736 1.0031579-13.93276596 5.6-1.29093229 1.620067-1.66454709 3.6591797-1.91234042 5.7365854-.33386459 4.4809082 1.8305811 15.1274592 2.59531915 14.8878049.71211006-.2480513-3.16495411-15.3529561 2.73191489-20.6243903zm96.02680834-31.14146339c.005864-.51317471-.425678-3.91065449-.95617-3.82439025-.632568.08856458-3.264617 1.52259067-3.414894 1.91219513-.137644.44725522 3.266494 2.42161771 3.688085 2.59512191.51866.1031587.672621-.1415168.682979-.68292679zm-6.6931913-.13658537c-.266849-.07013519-3.0802807 1.34754206-3.1417021 1.91219516-.0543383.4550057 4.2064992 2.3754841 4.5076595 2.1853658.2185173-.2189349-.8147358-3.97712373-1.3659574-4.09756096zm12.0204253-6.28292683c-.103529-.2636029-.139015-.64777478-.682979-.54634146-.661952.15368673-3.107151 1.21063194-3.278297 1.63902439-.156954.40889868 3.577057 2.68626737 3.82468 2.45853658.317742-.26479658.365125-2.05268903.136596-3.55121951zm4.644256 19.25853659c-.101948-.3611393-3.663741-2.4116476-4.097873-2.1853659-.549415.2654143-.985248 3.716177-.819574 4.097561.290181.4696622 3.461947-.6718141 4.780851-1.3658536.300542-.1373578.324443-.345701.136596-.5463415zm-52.9991494 19.3951219c-.0375782-.0337024 36.8578321-18.4215183 37.427234-18.7121951.5283187-.257992-.3154924-1.8521069-.8195744-1.6390244l-51.0868085 24.8585366c-.6500724.3493119.4885665 2.08634.9561702 1.9121951.4879406-.2759546 11.0369376-5.4896867 11.0642553-5.4634146 5.019255 11.6756051-5.9962876 16.2910015-10.5178723 16.1170732-3.2098785-.137721-5.707468.6579033-7.3761703 3.6878049-5.0009601 9.0464216-7.7118685 14.1597554-15.8451063 14.204878-10.4121947-.0451226-16.23968494-7.3150524-17.75744685-13.7951219-.08557878-.7077374-.94498687-.6747627-.81957447 0 3.74419802 17.4969705 17.78797102 18.6502941 23.49446812 16.2536585 10.1021048-4.1001216 12.6512383-16.5727828 16.2548936-17.2097561 4.5734983-.8199335 8.9479503.1281171 13.386383-4.6439024 2.9551265-3.1238705 4.1947365-9.719197 1.6391489-15.5707318zm54.7748934-19.804878c.470929.5178646 4.534938-1.2917562 4.50766-2.1853659-.027662-.7954194-3.734843-1.7452241-4.097873-1.502439-.392654.3532471-.787263 3.2976581-.409787 3.6878049zm4.371064-7.9219512c-.675812-.7826759-7.709061-8.60389739-8.468936-8.0585366-.621457.50804547-13.7763403 9.369384-14.2059576 9.697561-.4188869.3331551.2504716 1.6865404 1.092766 1.2292683.6882641-.518969 11.2745616-6.5786526 12.2936166-7.2390244.877458-.62042849 5.763101 4.0819596 5.190639 4.3707317-.437719.2698144-15.799433 6.2163479-16.118298 6.2829268-.634792.2834673-.10041 1.6808904.546383 1.502439.504351-.1468894 19.024453-6.0505746 18.986808-6.0097561.822138-.3221489 1.300855-1.0260558.682979-1.7756097z" fill="url(#c)"/></g></svg>